<svg width="24" height="24" viewBox="0 0 24 24" fill="none" xmlns="http://www.w3.org/2000/svg">
<circle cx="12" cy="12" r="11" fill="#F0F1F3"/>
<path d="M15.9375 15.4219C14.9531 16.5938 13.5 17.25 12 17.25C10.4531 17.25 9 16.5938 8.01562 15.4219C7.64062 14.9531 6.9375 14.9062 6.46875 15.2812C6 15.6562 5.90625 16.4062 6.32812 16.875C7.73438 18.5625 9.79688 19.5 12 19.5C14.1562 19.5 16.2188 18.5625 17.625 16.875C18.0469 16.4062 18 15.6562 17.4844 15.2812C17.0156 14.9062 16.3125 14.9531 15.9375 15.4219ZM12 0C5.34375 0 0 5.39062 0 12C0 18.6562 5.34375 24 12 24C18.6094 24 24 18.6562 24 12C24 5.39062 18.6094 0 12 0ZM12 2.25C15.0938 2.25 17.9062 3.75 19.6875 6.04688C19.5469 6.04688 19.4531 6 19.3125 6H14.7188C14.0625 6 13.4531 6.32812 13.0781 6.75H10.875C10.5 6.32812 9.89062 6 9.23438 6H4.64062C4.5 6 4.40625 6.04688 4.26562 6.04688C6.04688 3.75 8.85938 2.25 12 2.25ZM12 21.75C6.60938 21.75 2.25 17.3906 2.25 12C2.25 11.1562 2.34375 10.3594 2.57812 9.5625L2.76562 10.8281C2.90625 11.9531 3.84375 12.75 4.96875 12.75H8.90625C10.0781 12.75 11.0156 11.9531 11.1562 10.8281L11.3906 9H12.5625L12.7969 10.8281C12.9375 11.9531 13.875 12.75 15.0469 12.75H18.9844C20.1094 12.75 21.0469 11.9531 21.2344 10.8281L21.4219 9.5625C21.6094 10.3594 21.75 11.1562 21.75 12C21.75 17.3906 17.3438 21.75 12 21.75Z" fill="#1D3150"/>
</svg>
